<svg xmlns="http://www.w3.org/2000/svg" width="54.328" height="67.309" viewBox="0 0 54.328 67.309"><path fill="#191718" d="M54.328 67.31H0V0h54.328v67.31zM1.31 65.996h51.707V1.31H1.31v64.687zm3.72-31.04H8.26c1.88 0 3.158.827 3.158 2.895v7.894c0 1.54-1.165 2.218-2.368 2.293v.075c1.428.075 2.556.563 2.556 2.518v8.57c0 2.03-1.24 2.896-2.932 2.896H5.03V34.957zm3.12 12.63c1.39 0 1.766-.976 1.766-1.916v-7.893c0-1.203-.376-1.692-1.842-1.692h-1.54v11.503h1.615zm-1.617 1.13V60.97h1.54c1.505 0 2.03-.525 2.03-1.653V50.67c0-1.352-.638-1.954-1.954-1.954H6.532zm8.495-13.76h3.384c1.804 0 3.082.827 3.082 2.52v8.006c0 1.466-.413 2.52-2.33 2.67v.074c1.353.113 2.33.79 2.33 2.444V62.1H19.99V50.67c0-1.014-.564-1.954-2.067-1.954h-1.39v13.382h-1.505v-27.14zm2.97 12.63c1.28 0 1.993-.6 1.993-1.803v-8.007c0-1.166-.638-1.692-1.84-1.692h-1.617v11.503H18zm7.03 14.51h5.413V60.97h-3.908V48.715h3.42v-1.127h-3.42V36.085h3.646v-1.128h-5.15v27.14zm13.345-7.93h-3.72l-.83 7.932h-1.352l3.046-27.143h2.104L40.74 62.1h-1.503l-.864-7.933zm-.112-1.128l-.94-8.91c-.3-2.707-.675-5.45-.75-8.195h-.075c-.3 2.706-.414 5.488-.715 8.195l-.977 8.91h3.458zm4.55-18.082h3.194c2.22 0 3.385.864 3.385 2.894v21.352c0 2.03-1.167 2.895-3.386 2.895H42.81V34.957zm3.044 26.013c1.353 0 2.03-.488 2.03-1.653V37.74c0-1.166-.678-1.655-2.03-1.655h-1.54V60.97h1.54zm-18.87-28.543h1.503V6.414h2.67V5.286h-6.843v1.128h2.67v26.013zm6.24 0h1.505V19.044h3.57v13.383h1.505V5.287H38.3v12.63h-3.57V5.288h-1.505v27.14zm9.692 0h5.876V31.3H44.42V19.043h3.883v-1.127H44.42V6.415h4.11V5.287h-5.614v27.14z"/></svg>