<svg xmlns="http://www.w3.org/2000/svg" width="36.392" height="67.106" viewBox="0 0 36.392 67.106"><path fill="#191718" d="M5.72 5.27h3.225c1.874 0 3.147.825 3.147 2.887v7.87c0 1.537-1.162 2.21-2.36 2.286v.075c1.424.075 2.55.562 2.55 2.51v8.546c0 2.024-1.238 2.886-2.925 2.886H5.72V5.27zm3.112 12.594c1.386 0 1.76-.975 1.76-1.912v-7.87c0-1.2-.374-1.687-1.835-1.687H7.22v11.47h1.612zM7.22 18.988v12.218h1.537c1.5 0 2.023-.525 2.023-1.65v-8.62c0-1.348-.637-1.948-1.948-1.948H7.22zm12.937 5.895h-3.71l-.824 7.447h-1.35L17.31 5.27h2.098l3.11 27.06h-1.5l-.86-7.447zm-.112-1.124l-.937-9.345c-.3-2.698-.676-5.434-.75-8.17h-.074c-.3 2.698-.413 5.472-.713 8.17l-.974 9.344h3.45zm4.573-18.49h1.5v27.06h-1.5V5.27zm1.5 12.744L30.134 5.27h1.35l-4.02 12.744L31.86 32.33h-1.5l-4.243-14.316zM5.832 62.474H12v-1.123H7.33V49.133h3.872v-1.124H7.332V36.54h4.405v-1.124H5.833v27.06zm9.21-27.058h3.526c1.798 0 3.072.825 3.072 2.51v7.984c0 1.462-.412 2.51-2.323 2.66v.076c1.348.112 2.322.787 2.322 2.436v11.393h-1.5V51.082c0-1.012-.56-1.95-2.06-1.95h-1.54v13.343h-1.5v-27.06zm3.114 12.592c1.273 0 1.986-.6 1.986-1.8v-7.982c0-1.162-.638-1.686-1.836-1.686H16.54v11.468h1.617zm10.007 2.06h-.075l-2.17-14.653h-1.5l2.957 16.378v10.68h1.5v-10.68l2.956-16.378h-1.5l-2.17 14.654zm8.228 17.038H0V0h36.392v67.106zM1.31 65.798h33.773V1.308H1.31v64.49z"/></svg>