<svg id="Layer_1" data-name="Layer 1" xmlns="http://www.w3.org/2000/svg" viewBox="0 0 150.06 150.06"><defs><style>.cls-1{fill:#231f20;}</style></defs><title>THE BREAD WEB 2016</title><path class="cls-1" d="M106.73,120.37H37V18.65h69.75ZM38.6,118.75h66.51V20.27H38.6Z"/><path class="cls-1" d="M114.47,127.22H44.72V25.5h69.75ZM46.34,125.6h66.51V27.12H46.34Z"/><circle class="cls-1" cx="88.03" cy="76.36" r="8.86"/><rect class="cls-1" x="51.3" y="42.68" width="22.65" height="22.65"/><rect class="cls-1" x="51.3" y="69.27" width="22.65" height="1.62"/><rect class="cls-1" x="51.3" y="32.16" width="22.65" height="1.62"/><rect class="cls-1" x="78.17" y="32.16" width="22.65" height="1.62"/><rect class="cls-1" x="51.3" y="74.22" width="22.65" height="1.62"/><rect class="cls-1" x="51.3" y="79.36" width="22.65" height="1.62"/><rect class="cls-1" x="51.3" y="83.83" width="22.65" height="1.62"/><rect class="cls-1" x="51.3" y="88.3" width="48.58" height="1.62"/><rect class="cls-1" x="51.3" y="37.01" width="48.58" height="1.62"/><rect class="cls-1" x="51.3" y="93.44" width="19.65" height="1.62"/><rect class="cls-1" x="73.95" y="93.44" width="25.93" height="1.62"/><rect class="cls-1" x="91.74" y="98.77" width="8.14" height="1.62"/><rect class="cls-1" x="51.3" y="98.77" width="36.73" height="1.62"/><rect class="cls-1" x="51.3" y="109.43" width="36.73" height="1.62"/><rect class="cls-1" x="51.3" y="103.91" width="48.58" height="1.62"/><path class="cls-1" d="M88.55,47.3a.8.8,0,0,1-.57-.23.8.8,0,0,1,0-1.14.72.72,0,0,1,.26-.18.81.81,0,0,1,.88.18.77.77,0,0,1,.24.57.78.78,0,0,1-.24.57A.8.8,0,0,1,88.55,47.3Z"/><path class="cls-1" d="M95.62,60.37a.82.82,0,0,1,.3-1.11h0a.81.81,0,0,1,1.11.3h0a.81.81,0,0,1-.3,1.11h0a.89.89,0,0,1-.41.1h0A.82.82,0,0,1,95.62,60.37Zm-1.55-2.69a.82.82,0,0,1,.3-1.11h0a.82.82,0,0,1,1.11.3h0a.82.82,0,0,1-.3,1.11h0a.85.85,0,0,1-.4.11h0A.83.83,0,0,1,94.07,57.67ZM92.51,55a.8.8,0,0,1,.3-1.1h0a.8.8,0,0,1,1.11.29h0a.81.81,0,0,1-.3,1.11h0a.77.77,0,0,1-.41.11h0A.81.81,0,0,1,92.51,55ZM91,52.29a.81.81,0,0,1,.3-1.11h0a.81.81,0,0,1,1.11.3h0a.82.82,0,0,1-.3,1.11h0a.89.89,0,0,1-.41.1h0A.82.82,0,0,1,91,52.29Zm-1.55-2.7a.81.81,0,0,1,.3-1.11h0a.8.8,0,0,1,1.1.3h0a.8.8,0,0,1-.29,1.11h0a.9.9,0,0,1-.41.1h0A.79.79,0,0,1,89.41,49.6Z"/><path class="cls-1" d="M97.88,63.46a.86.86,0,0,1-.31-.06.91.91,0,0,1-.45-.44.88.88,0,0,1-.06-.31,1,1,0,0,1,.06-.31,1.06,1.06,0,0,1,.17-.26.74.74,0,0,1,.26-.17.8.8,0,0,1,.63,0,.93.93,0,0,1,.26.17.81.81,0,0,1,.17.26.74.74,0,0,1,.06.31.68.68,0,0,1-.06.31.87.87,0,0,1-.17.26A.78.78,0,0,1,97.88,63.46Z"/><path class="cls-1" d="M94,62.65a.81.81,0,0,1,.81-.81h0a.8.8,0,0,1,.8.81h0a.8.8,0,0,1-.8.81h0A.81.81,0,0,1,94,62.65Zm-3.12,0a.81.81,0,0,1,.81-.81h0a.81.81,0,0,1,.81.81h0a.81.81,0,0,1-.81.81h0A.81.81,0,0,1,90.85,62.65Zm-3.11,0a.81.81,0,0,1,.81-.81h0a.81.81,0,0,1,.81.81h0a.81.81,0,0,1-.81.81h0A.81.81,0,0,1,87.74,62.65Zm-3.11,0a.81.81,0,0,1,.81-.81h0a.81.81,0,0,1,.81.81h0a.81.81,0,0,1-.81.81h0A.81.81,0,0,1,84.63,62.65Zm-3.11,0a.81.81,0,0,1,.81-.81h0a.81.81,0,0,1,.81.81h0a.81.81,0,0,1-.81.81h0A.81.81,0,0,1,81.53,62.65Z"/><path class="cls-1" d="M79.23,63.46a1,1,0,0,1-.32-.06.79.79,0,0,1-.25-.18.72.72,0,0,1-.18-.26.68.68,0,0,1-.06-.31.77.77,0,0,1,.24-.57.75.75,0,0,1,.25-.17.8.8,0,0,1,.63,0,.74.74,0,0,1,.26.17,1.06,1.06,0,0,1,.17.26,1,1,0,0,1,.06.31A.68.68,0,0,1,80,63a.69.69,0,0,1-.17.26,1,1,0,0,1-.26.18A1,1,0,0,1,79.23,63.46Z"/><path class="cls-1" d="M80.38,60.66a.82.82,0,0,1-.3-1.11h0a.81.81,0,0,1,1.11-.3h0a.81.81,0,0,1,.3,1.11h0a.82.82,0,0,1-.7.4h0A.88.88,0,0,1,80.38,60.66ZM81.93,58a.82.82,0,0,1-.3-1.11h0a.82.82,0,0,1,1.11-.3h0a.81.81,0,0,1,.3,1.11h0a.81.81,0,0,1-.7.41h0A.9.9,0,0,1,81.93,58Zm1.56-2.7a.82.82,0,0,1-.31-1.11h0a.8.8,0,0,1,1.11-.29h0a.79.79,0,0,1,.3,1.1h0a.8.8,0,0,1-.7.41h0A.73.73,0,0,1,83.49,55.27ZM85,52.59a.81.81,0,0,1-.3-1.11h0a.79.79,0,0,1,1.1-.3h0a.81.81,0,0,1,.3,1.11h0a.82.82,0,0,1-.7.4h0A.84.84,0,0,1,85,52.59Zm1.55-2.7a.8.8,0,0,1-.3-1.11h0a.8.8,0,0,1,1.1-.3h0a.81.81,0,0,1,.3,1.11h0a.78.78,0,0,1-.7.4h0A.83.83,0,0,1,86.6,49.9Z"/></svg>