<svg id="Layer_1" data-name="Layer 1" xmlns="http://www.w3.org/2000/svg" viewBox="0 0 150.06 150.06"><defs><style>.cls-1{fill:#231f20;}</style></defs><title>THE BREAD WEB 2016</title><polygon class="cls-1" points="65.46 65.09 41.17 5.56 27.86 18.87 15.76 4.36 4.73 15.38 19.24 27.49 5.93 40.8 65.46 65.09"/><path class="cls-1" d="M95.41,120.06c-4,0-7.07-3.8-7.21-4l-9.44-9.43c-23-23-7.59-46.85-7.43-47.09l1.35.9c-.62.93-14.85,23,7.23,45l9.5,9.5c.1.11,3.49,4.34,7.31,3.25l.44,1.56A6.38,6.38,0,0,1,95.41,120.06Z"/><path class="cls-1" d="M119.29,149.79,95.6,123.49c-.27-.25-3.11-2.94-2.12-5.27l1.49.63c-.43,1,1,2.8,1.78,3.5l23.74,26.36Z"/><path class="cls-1" d="M98,90.74h-.23c-5.69-.13-10.39-5.21-10.58-5.43-12.16-12.16-17.54-20.82-16-25.69a4.6,4.6,0,0,1,3.48-3.07l.41-.06L105.69,87l-.57.57A9.82,9.82,0,0,1,98,90.74ZM74.64,58.25a2.93,2.93,0,0,0-1.83,1.89c-.76,2.4.26,8.71,15.6,24,.07.07,4.46,4.81,9.46,4.93A8,8,0,0,0,103.39,87Z"/><rect class="cls-1" x="126.18" y="77.73" width="1.62" height="63.46" transform="translate(-40.2 121.85) rotate(-45)"/><path class="cls-1" d="M91.26,87.72A6.27,6.27,0,0,1,90,87.61L90.32,86c.18,0,4.57.9,9-4.18l1.22,1.06C96.89,87.1,93.17,87.72,91.26,87.72Z"/><path class="cls-1" d="M136.29,134.66l-1-1.29c.06,0,6.32-4.87,5.55-9.1l1.59-.29C143.4,129.18,136.58,134.44,136.29,134.66Z"/><path class="cls-1" d="M138.41,136.78l-1-1.29c.06,0,6.32-4.87,5.55-9.1l1.59-.29C145.53,131.31,138.7,136.56,138.41,136.78Z"/></svg>