<svg id="Layer_1" data-name="Layer 1" xmlns="http://www.w3.org/2000/svg" viewBox="0 0 150.06 150.06"><defs><style>.cls-1{fill:#231f20;}</style></defs><title>THE BREAD WEB 2016</title><path class="cls-1" d="M127.35,108.35l-44,17.4a9.5,9.5,0,0,1-10.89-3.53L19,41.73c-2.27-3.42-1.08-7.41,2.66-8.88l44-17.4A9.51,9.51,0,0,1,76.63,19L130,99.47C132.28,102.89,131.09,106.88,127.35,108.35ZM22.6,34.23a4.45,4.45,0,0,0-2.07,6.91l53.38,80.49a7.39,7.39,0,0,0,8.47,2.75l44-17.4a4.45,4.45,0,0,0,2.07-6.91L75.12,19.58a7.39,7.39,0,0,0-8.47-2.75Z"/><path class="cls-1" d="M102.93,113.43a7.12,7.12,0,0,1-8.15-2.64,4.28,4.28,0,0,1,2-6.65,7.12,7.12,0,0,1,8.15,2.64A4.28,4.28,0,0,1,102.93,113.43Zm-5.25-7.91a3,3,0,0,0-1.4,4.67,5,5,0,0,0,5.73,1.86,3,3,0,0,0,1.4-4.68A5,5,0,0,0,97.68,105.52Z"/><polygon class="cls-1" points="60.63 25.79 41.51 33.34 40.59 31.96 59.72 24.41 60.63 25.79"/><polygon class="cls-1" points="39.16 34.27 37.15 35.06 36.23 33.68 38.25 32.89 39.16 34.27"/><path class="cls-1" d="M76.29,24.33,24.84,44.65l44.89,67.68L121.18,92Zm24.46,48L80,80.52l-.91-1.38,20.78-8.21Zm-18,1.85,3.63-1.43.91,1.38L83.7,75.54Zm7.74-17.27L69.75,65.1l-.91-1.38,20.78-8.21ZM75.91,66.56l-8,3.16L67,68.33l8-3.16Zm-3.35-7.82,3.63-1.43.91,1.38-3.63,1.43ZM68.24,42.65l8-3.18a3,3,0,0,1,3.42,1.11L84.6,48a1.8,1.8,0,0,1-.84,2.79l-8,3.18a3,3,0,0,1-3.42-1.11L67.4,45.44A1.8,1.8,0,0,1,68.24,42.65ZM54.5,48.08l8-3.18A3,3,0,0,1,66,46l4.89,7.37A1.8,1.8,0,0,1,70,56.17l-8,3.18a3,3,0,0,1-3.42-1.11l-4.89-7.37A1.8,1.8,0,0,1,54.5,48.08Zm-18.37-.42a2.26,2.26,0,0,1-2.59-.84,1.36,1.36,0,0,1,.63-2.12,2.26,2.26,0,0,1,2.59.84A1.36,1.36,0,0,1,36.13,47.66Zm8.69,16-4.89-7.37a1.8,1.8,0,0,1,.84-2.79l8-3.18a3,3,0,0,1,3.42,1.11l4.89,7.37a1.8,1.8,0,0,1-.84,2.79l-8,3.18A3,3,0,0,1,44.82,63.67ZM48,68.45l11.82-4.67,11.3-4.46L72,60.69l-11.3,4.46h0L48.9,69.83Zm1.91,2.88L66.43,64.8l.91,1.38L50.81,72.71Zm2,3,13.07-5.16.91,1.38L52.79,75.69Zm6.34,9.56L71.29,78.7l10-4,.91,1.38-10,4L59.13,85.24Zm1.91,2.88,16.53-6.53.91,1.38L61,88.13ZM63,91.11l-.91-1.38L90.31,78.59,91.22,80Zm19.54,7a1.76,1.76,0,0,1-2-.65A1.06,1.06,0,0,1,81,95.79a1.76,1.76,0,0,1,2,.65A1.06,1.06,0,0,1,82.56,98.09Zm8.07-3.19a1.76,1.76,0,0,1-2-.65,1.06,1.06,0,0,1,.49-1.65,1.76,1.76,0,0,1,2,.65A1.06,1.06,0,0,1,90.63,94.9Zm8.31-3.28a1.76,1.76,0,0,1-2-.65,1.06,1.06,0,0,1,.49-1.65,1.76,1.76,0,0,1,2,.65A1.06,1.06,0,0,1,98.95,91.61Z"/><path class="cls-1" d="M127.37,111.75a4.35,4.35,0,0,1-.42.14L85.08,128.43c-9.6,3.79-15.66-4.91-15.72-5L18.71,47.07A10.17,10.17,0,0,1,18,37.34l1.64.74a9,9,0,0,0,.6,8.39l50.64,76.36c.2.3,5.2,7.42,13.31,4.22l42-16.59c.15,0,3.88-1.06,3.12-6.62l1.75,0C131.82,109.42,128.64,111.25,127.37,111.75Z"/></svg>