<svg id="Layer_1" data-name="Layer 1" xmlns="http://www.w3.org/2000/svg" viewBox="0 0 150.06 150.06"><defs><style>.cls-1{fill:#231f20;}</style></defs><title>THE BREAD WEB 2016-27-27</title><path class="cls-1" d="M45.48,43.8l-.1,1.05c0,.27-.05.55-.09.84h0c.14-.28.29-.56.43-.8l.57-1,.63.07,0,1c0,.29,0,.58-.06.88h0c.12-.28.26-.56.4-.84l.51-1,.78.09L47,46.56l-.75-.08,0-.91c0-.25,0-.49.07-.8h0a6.93,6.93,0,0,1-.4.76l-.52.86-.75-.08v-2.6Z"/><path class="cls-1" d="M49.57,44.25l-.1,1.05c0,.27-.05.55-.09.84h0c.14-.28.29-.56.43-.8l.57-1,.63.07,0,1c0,.29,0,.58-.06.88h0c.12-.28.26-.56.4-.84l.51-1,.78.09L51.1,47l-.75-.08,0-.91c0-.25,0-.49.07-.8h0A6.93,6.93,0,0,1,50,46l-.52.86-.75-.08v-2.6Z"/><path class="cls-1" d="M53.65,44.7l-.1,1.05c0,.27-.05.55-.09.84h0c.14-.28.29-.56.43-.8l.57-1,.63.07,0,1c0,.29,0,.58-.06.88h0c.12-.28.26-.56.4-.84l.51-1,.78.09-1.52,2.43-.75-.08,0-.91c0-.25,0-.49.07-.8h0a6.93,6.93,0,0,1-.4.76l-.52.86-.75-.08v-2.6Z"/><path class="cls-1" d="M56.16,47.14a.58.58,0,0,1,.61-.43.38.38,0,0,1,.33.53.57.57,0,0,1-.61.42A.38.38,0,0,1,56.16,47.14Z"/><path class="cls-1" d="M59.3,44.57l-.21.72.57.06-.17.58-.57-.06-.27.91c-.09.3-.06.45.19.48h.24l-.17.59a1.68,1.68,0,0,1-.54,0,.7.7,0,0,1-.54-.28,1,1,0,0,1,0-.77l.3-1-.34,0,.17-.58.34,0,.16-.55Z"/><path class="cls-1" d="M60.46,44.27l.8.09-.42,1.44h0a1.23,1.23,0,0,1,.39-.22,1,1,0,0,1,.44-.05c.51.06.8.44.58,1.2l-.43,1.47-.8-.09.4-1.38c.1-.33,0-.57-.25-.6a.53.53,0,0,0-.48.23.57.57,0,0,0-.08.17L60.19,48l-.8-.09Z"/><path class="cls-1" d="M63.38,47.32c-.07.33.21.52.58.56a2.46,2.46,0,0,0,.74,0l0,.54a2.78,2.78,0,0,1-1,.05,1,1,0,0,1-1-1.43,1.61,1.61,0,0,1,1.69-1.2c.83.09,1,.76.78,1.38a2.16,2.16,0,0,1-.12.31Zm1.1-.43c.06-.19.07-.52-.3-.56a.66.66,0,0,0-.64.46Z"/><path class="cls-1" d="M67,45.44a.5.5,0,0,1-.54.34.32.32,0,0,1-.3-.44A.49.49,0,0,1,66.7,45,.33.33,0,0,1,67,45.44Zm-1.76,3.13L66,46.05l.8.09L66,48.66Z"/><path class="cls-1" d="M67.18,47c.09-.31.16-.58.21-.81l.69.08-.06.35h0a1.16,1.16,0,0,1,.91-.31c.52.06.82.44.6,1.18L69.12,49l-.8-.09.41-1.4c.09-.32,0-.56-.24-.59a.53.53,0,0,0-.49.25.62.62,0,0,0-.09.19l-.42,1.45-.8-.09Z"/><path class="cls-1" d="M71.56,45.92l-.21.72.57.06-.17.58-.57-.06-.27.91c-.09.3-.06.45.19.48h.24l-.17.59a1.68,1.68,0,0,1-.54,0,.7.7,0,0,1-.54-.28,1,1,0,0,1,0-.77l.3-1-.34,0,.17-.58.34,0,.16-.55Z"/><path class="cls-1" d="M72.54,48.33c-.07.33.21.52.58.56a2.46,2.46,0,0,0,.74,0l0,.54a2.78,2.78,0,0,1-1,.05,1,1,0,0,1-1-1.43,1.61,1.61,0,0,1,1.69-1.2c.83.09,1,.76.78,1.38a2.16,2.16,0,0,1-.12.31Zm1.1-.43c.06-.19.07-.52-.3-.56a.66.66,0,0,0-.64.46Z"/><path class="cls-1" d="M74.89,47.89c.11-.37.17-.61.22-.83l.69.08-.11.47h0a1,1,0,0,1,.84-.44l.17,0-.21.74-.21,0a.64.64,0,0,0-.66.34,1,1,0,0,0-.07.17l-.37,1.28-.8-.09Z"/><path class="cls-1" d="M76.9,48.08c.09-.31.16-.58.21-.81l.69.08-.06.35h0a1.16,1.16,0,0,1,.91-.31c.52.06.82.44.6,1.18l-.44,1.49L78,50l.41-1.4c.09-.32,0-.56-.24-.59a.53.53,0,0,0-.49.25.62.62,0,0,0-.09.19l-.42,1.45-.8-.09Z"/><path class="cls-1" d="M80.38,49.2c-.07.33.21.52.58.56a2.46,2.46,0,0,0,.74,0l0,.54a2.78,2.78,0,0,1-1,.05,1,1,0,0,1-1-1.43,1.61,1.61,0,0,1,1.69-1.2c.83.09,1,.76.78,1.38a2.16,2.16,0,0,1-.12.31Zm1.1-.43c.06-.19.07-.52-.3-.56a.66.66,0,0,0-.64.46Z"/><path class="cls-1" d="M84.09,47.3l-.21.72.57.06-.17.58-.57-.06-.27.91c-.09.3-.06.45.19.48h.24l-.17.59a1.68,1.68,0,0,1-.54,0,.7.7,0,0,1-.54-.28,1,1,0,0,1,0-.77l.3-1-.34,0,.17-.58.34,0,.16-.55Z"/><path class="cls-1" d="M84.2,50.23a.58.58,0,0,1,.61-.43.38.38,0,0,1,.33.53.57.57,0,0,1-.61.42A.38.38,0,0,1,84.2,50.23Z"/><path class="cls-1" d="M87.44,51a2.15,2.15,0,0,1-.75,0,1,1,0,0,1-1-1.44,1.66,1.66,0,0,1,1.86-1.18,1.7,1.7,0,0,1,.58.17l-.3.57a1,1,0,0,0-.42-.13.83.83,0,0,0-.89.63.55.55,0,0,0,.5.78,1.36,1.36,0,0,0,.48,0Z"/><path class="cls-1" d="M90.72,50A1.6,1.6,0,0,1,89,51.24,1,1,0,0,1,88,49.8a1.59,1.59,0,0,1,1.76-1.18A1,1,0,0,1,90.72,50Zm-1.87-.18c-.13.43,0,.78.3.81s.6-.25.73-.7.07-.77-.29-.81S89,49.5,88.86,49.87Z"/><path class="cls-1" d="M91.34,49.68c.09-.31.16-.58.21-.81l.67.07-.06.34h0a1.1,1.1,0,0,1,.89-.31.59.59,0,0,1,.58.51h0a1.48,1.48,0,0,1,.42-.27,1.06,1.06,0,0,1,.52-.07c.49.05.77.44.55,1.19l-.43,1.48-.78-.09.4-1.37c.11-.37,0-.59-.21-.62a.49.49,0,0,0-.45.23.75.75,0,0,0-.09.2l-.43,1.47-.78-.09.41-1.41c.09-.32,0-.55-.21-.58a.51.51,0,0,0-.46.24A.61.61,0,0,0,92,50l-.43,1.47-.78-.09Z"/><path class="cls-1" d="M95.06,52.07l2.21-3.61.53.06-2.21,3.61Z"/><path class="cls-1" d="M97.29,51.39a1.36,1.36,0,0,0,.63.27c.24,0,.37,0,.4-.17s0-.2-.29-.33c-.48-.23-.6-.54-.51-.84a1.14,1.14,0,0,1,1.29-.71,1.57,1.57,0,0,1,.68.22l-.3.53a1.12,1.12,0,0,0-.51-.21c-.19,0-.33,0-.36.17s0,.19.33.33c.44.22.57.48.47.85s-.61.77-1.35.69a1.63,1.63,0,0,1-.78-.27Z"/><path class="cls-1" d="M101.21,49.19l-.21.72.57.06-.17.58-.57-.06-.27.91c-.09.3-.06.45.19.48H101l-.17.59a1.68,1.68,0,0,1-.54,0,.7.7,0,0,1-.54-.28,1,1,0,0,1,0-.77l.3-1-.34,0,.17-.58.34,0,.16-.55Z"/><path class="cls-1" d="M104.19,51.53a1.6,1.6,0,0,1-1.75,1.2,1,1,0,0,1-.95-1.44,1.59,1.59,0,0,1,1.76-1.18A1,1,0,0,1,104.19,51.53Zm-1.87-.18c-.13.43,0,.78.3.81s.6-.25.73-.7.07-.77-.29-.81S102.43,51,102.32,51.35Z"/><path class="cls-1" d="M104.8,51.18c.11-.37.17-.61.22-.83l.69.08-.11.47h0a1,1,0,0,1,.84-.44l.17,0-.21.74-.21,0a.64.64,0,0,0-.66.34,1,1,0,0,0-.07.17L105.1,53l-.8-.09Z"/><path class="cls-1" d="M107.17,52.15c-.07.33.21.52.58.56a2.46,2.46,0,0,0,.74,0l0,.54a2.78,2.78,0,0,1-1,.05,1,1,0,0,1-1-1.43,1.61,1.61,0,0,1,1.69-1.2c.83.09,1,.76.78,1.38a2.16,2.16,0,0,1-.12.31Zm1.1-.43c.06-.19.07-.52-.3-.56a.66.66,0,0,0-.64.46Z"/><path class="cls-1" d="M89.26,102.45l15.49,1.71L109.18,89,93.69,87.27Zm9.17-8.27,2.43-3.76.15,4,4.18.46-4.09,2,.15,4-2.68-2.79-4.09,2,2.43-3.76-2.68-2.78Z"/><path class="cls-1" d="M102.77,107.57l-.17.58a.38.38,0,0,0,.41-.26.24.24,0,0,0,0-.21A.36.36,0,0,0,102.77,107.57Z"/><path class="cls-1" d="M70.89,79.79a.24.24,0,0,0,0-.21.35.35,0,0,0-.22-.12l-.17.58A.38.38,0,0,0,70.89,79.79Z"/><path class="cls-1" d="M63.36,102.48a.21.21,0,0,0,0,.18.34.34,0,0,0,.2.12l.17-.57A.39.39,0,0,0,63.36,102.48Z"/><path class="cls-1" d="M69.72,100.3,85.21,102l4.44-15.19L74.16,85.12ZM81.16,88.52a4,4,0,0,1,3.52,5.38,6.17,6.17,0,0,1-6.34,4.29,4,4,0,0,1-3.52-5.38A6.17,6.17,0,0,1,81.16,88.52Z"/><path class="cls-1" d="M70.7,78.41a.39.39,0,0,0-.39.27.21.21,0,0,0,0,.18.34.34,0,0,0,.2.12Z"/><path class="cls-1" d="M90.29,80.56a.39.39,0,0,0-.39.27.21.21,0,0,0,0,.18.34.34,0,0,0,.2.12Z"/><path class="cls-1" d="M50.23,98.16l15.49,1.71,4.44-15.19L54.67,83ZM60.29,86.24l4.53,1.83-.09,5-4.62,3.13-4.53-1.83.09-5Z"/><path class="cls-1" d="M102.43,106.78a.21.21,0,0,0,0,.18.34.34,0,0,0,.2.12l.17-.57A.39.39,0,0,0,102.43,106.78Z"/><path class="cls-1" d="M76.68,76.5,92.16,78.2,96.6,63,81.11,61.31Zm6.75-11.92,9.15,1-2.62,9-9.15-1Z"/><path class="cls-1" d="M90.48,81.95a.24.24,0,0,0,0-.21.35.35,0,0,0-.22-.12l-.17.58A.38.38,0,0,0,90.48,81.95Z"/><path class="cls-1" d="M63.7,103.27l-.17.58a.38.38,0,0,0,.41-.26.24.24,0,0,0,0-.21A.36.36,0,0,0,63.7,103.27Z"/><polygon class="cls-1" points="116.1 59.66 113.13 59.33 113.12 59.41 112.99 60.93 115.74 61.21 116.28 60.14 115.97 60.1 116.1 59.66"/><path class="cls-1" d="M82.95,104.63a.21.21,0,0,0,0,.18.34.34,0,0,0,.2.12l.17-.57A.39.39,0,0,0,82.95,104.63Z"/><path class="cls-1" d="M96.21,78.65l15.49,1.71,4.44-15.19-15.49-1.71Zm9-11.51,5.08.56,1.28,4.59-3.8,4-5.08-.56-1.28-4.59Z"/><path class="cls-1" d="M117.39,59.61a.19.19,0,0,1-.18-.26l-.33,0c-.1.37.13.56.42.59a.65.65,0,0,0,.73-.47.36.36,0,0,0-.12-.43.49.49,0,0,0,.32-.34.43.43,0,0,0-.4-.57.65.65,0,0,0-.7.45l.33,0a.27.27,0,0,1,.29-.19.18.18,0,0,1,.16.25.26.26,0,0,1-.29.2h0l-.08.28h0a.19.19,0,0,1,.18.27A.29.29,0,0,1,117.39,59.61Z"/><path class="cls-1" d="M57.19,74.35l15.49,1.71,4.44-15.19L61.62,59.17ZM68,63l2.56,9.17L60.4,71.1Z"/><path class="cls-1" d="M83.29,105.43l-.17.58a.38.38,0,0,0,.41-.26.24.24,0,0,0,0-.21A.36.36,0,0,0,83.29,105.43Z"/><path class="cls-1" d="M109.77,82.71a.39.39,0,0,0-.39.27.21.21,0,0,0,0,.18.34.34,0,0,0,.2.12Z"/><path class="cls-1" d="M110,84.09a.24.24,0,0,0,0-.21.35.35,0,0,0-.22-.12l-.17.58A.38.38,0,0,0,110,84.09Z"/><path class="cls-1" d="M37.36,37.15,18.43,101.94,110.1,112,129,47.24ZM35.18,55.71l9.76,1.07-.46,1.59L34.71,57.3ZM47,59.44l-.32,1.09-9.76-1.07.32-1.09Zm-10.63,1.9,9,1L45,63.42l-9-1Zm-3.73,3.17,9,1-.46,1.59-9-1Zm7.28,6.93-9-1,.46-1.59,9,1Zm1.38-2.09-9.76-1.07L32,66.68l9.76,1.07ZM45.34,65l-9.76-1.07.32-1.09,9.76,1.07ZM47,62.1,36.45,60.94l.32-1.09L47.31,61ZM53.26,103l-4.8-.53.31-1,4.8.53Zm-4.38-2,.31-1,3.43.38.36,0,2.92.32-.31,1-2.92-.32-.36,0ZM60,103.66,54,103l.31-1,6,.66Zm1.24-1.31-4.62-.51.31-1,4.62.51Zm2.19,1.92-.11.38-.35,0,.11-.37a.94.94,0,0,1-.72-.41l.4-.27a.67.67,0,0,0,.49.26l.18-.61-.11,0a.68.68,0,0,1-.42-.26.57.57,0,0,1,0-.49.92.92,0,0,1,.93-.65l.09-.3.35,0-.09.3a.84.84,0,0,1,.6.35l-.39.26a.58.58,0,0,0-.38-.21l-.17.59.13,0a.7.7,0,0,1,.42.24.6.6,0,0,1,0,.53A.94.94,0,0,1,63.46,104.27Zm3.17-3.77a.67.67,0,0,1-.68.46L49.4,99.14a.44.44,0,0,1-.38-.58l4.74-16.23a.67.67,0,0,1,.68-.46L71,83.69a.44.44,0,0,1,.38.58Zm.65-21.69-.31,1-6-.66.31-1ZM63.6,78l.31-1,4.62.51-.31,1Zm-1.05-.12-2.92-.32-.36,0-3.43-.38.31-1,3.43.38.36,0,2.92.32Zm-2,.2-.31,1-4.8-.53.31-1Zm9.78,1.26a.68.68,0,0,1-.42-.26.57.57,0,0,1,0-.49.92.92,0,0,1,.93-.65l.09-.31.35,0-.09.3a.84.84,0,0,1,.6.35l-.39.26a.58.58,0,0,0-.38-.21l-.17.59.13,0a.7.7,0,0,1,.42.24.6.6,0,0,1,0,.53.94.94,0,0,1-1,.64l-.11.38-.35,0,.11-.37a.94.94,0,0,1-.72-.41l.4-.27a.67.67,0,0,0,.49.26l.18-.61Zm3.29-2.69a.67.67,0,0,1-.68.46L56.35,75.34a.44.44,0,0,1-.38-.58l4.74-16.23a.67.67,0,0,1,.68-.46l16.55,1.82a.44.44,0,0,1,.38.58Zm0,28.51-5.63-.62.31-1,5.63.62Zm-5.21-2.07.31-1,3.43.38.36,0,2.56.28-.31,1-2.56-.28-.36,0Zm12,2.76-6-.66.31-1,6,.66Zm-4.84-2,.31-1,1.52.17,2.9.32-.31,1-2.9-.32ZM83,106.43l-.11.38-.35,0,.11-.37A.94.94,0,0,1,82,106l.4-.27a.67.67,0,0,0,.49.26l.18-.61-.11,0a.68.68,0,0,1-.42-.26.57.57,0,0,1,0-.49.92.92,0,0,1,.93-.65l.09-.3.35,0-.09.3a.84.84,0,0,1,.6.35l-.39.26a.58.58,0,0,0-.38-.21l-.17.59.13,0a.7.7,0,0,1,.42.24.6.6,0,0,1,0,.53A.94.94,0,0,1,83,106.43Zm3.07-3.78a.67.67,0,0,1-.68.46l-16.55-1.82a.44.44,0,0,1-.38-.58l4.74-16.23a.67.67,0,0,1,.68-.46l16.55,1.82a.44.44,0,0,1,.38.58ZM87.58,81l-.31,1-6-.66.31-1Zm-5.14-.93.31-1,1.52.17,2.9.32-.31,1L84,80.28ZM81.66,80l-2.56-.28-.36,0-3.43-.38.31-1,3.43.38.36,0L82,79Zm-.84.33-.31,1-5.63-.62.31-1Zm9.08,1.19a.68.68,0,0,1-.42-.26.57.57,0,0,1,0-.49.92.92,0,0,1,.93-.65l.09-.31.35,0-.09.3a.84.84,0,0,1,.6.35l-.39.26a.58.58,0,0,0-.38-.21l-.17.59.13,0a.7.7,0,0,1,.42.24A.6.6,0,0,1,91,82a.94.94,0,0,1-1,.64l-.11.38-.35,0,.11-.37a.94.94,0,0,1-.72-.41l.4-.27a.67.67,0,0,0,.49.26l.18-.61Zm3.18-2.7a.67.67,0,0,1-.68.46L75.84,77.49a.44.44,0,0,1-.38-.58L80.2,60.67a.67.67,0,0,1,.68-.46L97.44,62a.44.44,0,0,1,.38.58Zm1.44,28.67-7.06-.78.31-1,7.06.78Zm-6.63-2.23.31-1,3.43.38.36,0,.39,0-.31,1-.39,0-.36,0ZM99,108l-3.78-.42.31-1,3.78.42Zm.41-1.4-2.9-.32-3.7-.41.31-1,3.7.41,2.9.32Zm3.09,2-.11.38-.35,0,.11-.37a.94.94,0,0,1-.72-.41l.4-.27a.67.67,0,0,0,.49.26l.18-.61-.11,0a.68.68,0,0,1-.42-.26.57.57,0,0,1,0-.49.92.92,0,0,1,.93-.65l.09-.3.35,0-.09.3a.84.84,0,0,1,.6.35l-.39.26a.58.58,0,0,0-.38-.21l-.17.59.13,0a.7.7,0,0,1,.42.24.6.6,0,0,1,0,.53A.94.94,0,0,1,102.53,108.57Zm3.13-3.77a.67.67,0,0,1-.68.46l-16.55-1.82a.44.44,0,0,1-.38-.58l4.74-16.23a.67.67,0,0,1,.68-.46L110,88a.44.44,0,0,1,.38.58Zm-3.89-22.14-.31,1-7.06-.78.31-1Zm-6.94-1.18.31-1,3.43.38.36,0,.39,0-.31,1-.39,0-.36,0Zm8.66,1L99.8,82l.31-1,3.7.41,2.9.32-.31,1Zm2.79.67-.31,1-3.78-.42.31-1Zm3.08.58a.68.68,0,0,1-.42-.26.57.57,0,0,1,0-.49.92.92,0,0,1,.93-.65l.09-.31.35,0-.09.3a.84.84,0,0,1,.6.35l-.39.26a.58.58,0,0,0-.38-.21l-.17.59.13,0a.7.7,0,0,1,.42.24.6.6,0,0,1,0,.53.94.94,0,0,1-1,.64l-.11.38-.35,0,.11-.37a.94.94,0,0,1-.72-.41l.4-.27a.67.67,0,0,0,.49.26l.18-.61ZM112.61,81a.67.67,0,0,1-.68.46L95.37,79.64a.44.44,0,0,1-.38-.58l4.74-16.23a.67.67,0,0,1,.68-.46L117,64.18a.44.44,0,0,1,.38.58Zm3-19.23-2.79-.31a.44.44,0,0,1-.4-.48l.13-1.53h0l.06-.74h0l0-.17-.7-.08.16-.55,1.16.13-.07.73,3.07.34.42-1.44,2.48.27-.71,2.43-1.6-.18-.6,1.2A.68.68,0,0,1,115.6,61.76Zm0,.65a.48.48,0,0,1-.5.34.32.32,0,0,1-.27-.42.48.48,0,0,1,.5-.33A.32.32,0,0,1,115.64,62.41Zm-2.33-.26a.48.48,0,0,1-.5.34.32.32,0,0,1-.27-.42.48.48,0,0,1,.5-.33A.32.32,0,0,1,113.3,62.15ZM123,56.68l-85.35-9.4,1.91-6.52,85.35,9.4Z"/><path class="cls-1" d="M23.46,70.37a1.63,1.63,0,0,0,1.67-1.13,1.07,1.07,0,0,0-.93-1.42A1.63,1.63,0,0,0,22.53,69,1.07,1.07,0,0,0,23.46,70.37Z"/><path class="cls-1" d="M123.81,82.58A3.07,3.07,0,0,0,127,80.45a2,2,0,0,0-1.75-2.67,3.07,3.07,0,0,0-3.15,2.13A2,2,0,0,0,123.81,82.58Zm1.08-3.68a1.07,1.07,0,0,1,.93,1.42,1.64,1.64,0,0,1-1.68,1.14A1.07,1.07,0,0,1,123.2,80,1.64,1.64,0,0,1,124.88,78.9Z"/><path class="cls-1" d="M140.84,43.75A6.12,6.12,0,0,0,136,40.93l-1.65-.18L117.7,38.92,38.07,30.15a8.89,8.89,0,0,0-9.12,6.17L10.46,99.63c0,.09-.16.48-.31,1.07l-.06.21a7.09,7.09,0,0,0-.26,1.39,9.5,9.5,0,0,0,.83,6.2,6.28,6.28,0,0,0,5,2.86L112,122a11.08,11.08,0,0,0,11.37-7.69L141,53.9C141.05,53.64,143.14,47.53,140.84,43.75ZM30.57,36.5a6.86,6.86,0,0,1,7-4.76l79.63,8.77,16.62,1.83a4.5,4.5,0,0,1,3.9,6l-18.87,64.59a6.86,6.86,0,0,1-7,4.76l-96.25-10.6a4.44,4.44,0,0,1-4.11-4.82c.09-.58.2-1.09.3-1.49ZM139.36,53.68,121.71,114.1a9,9,0,0,1-9.28,6.28l-96.28-10.6a5,5,0,0,1-4-2.23v0a6.27,6.27,0,0,0,3,1.12l96.25,10.6a8.89,8.89,0,0,0,9.12-6.17l18.87-64.59a6.46,6.46,0,0,0,.05-3.6C141.24,48.14,139.39,53.58,139.36,53.68Z"/></svg>