<?xml version="1.0" standalone="no"?>
<!DOCTYPE svg PUBLIC "-//W3C//DTD SVG 20010904//EN"
 "http://www.w3.org/TR/2001/REC-SVG-20010904/DTD/svg10.dtd">
<svg version="1.0" xmlns="http://www.w3.org/2000/svg"
 width="166.000000pt" height="166.000000pt" viewBox="0 0 166.000000 166.000000"
 preserveAspectRatio="xMidYMid meet">
<metadata>
Created by potrace 1.11, written by Peter Selinger 2001-2013
</metadata>
<g transform="translate(0.000000,166.000000) scale(0.100000,-0.100000)"
fill="#000000" stroke="none">
<path d="M347 843 c1 -450 2 -822 2 -828 1 -9 268 -10 908 -6 l73 1 0 825 0
825 -492 0 -493 0 2 -817z m923 -8 l0 -765 -190 -1 c-245 -1 -612 -1 -647 0
l-28 1 2 732 c1 403 2 748 3 766 l0 32 430 0 430 0 0 -765z"/>
<path d="M685 1386 c-2 -6 -3 -267 -2 -581 l2 -570 82 -3 c107 -4 158 10 182
49 16 27 18 55 19 253 1 244 -3 261 -56 287 l-32 17 29 11 c46 20 51 44 51
262 0 224 -6 250 -64 274 -40 17 -206 18 -211 1z m188 -55 c15 -13 17 -36 17
-221 0 -254 -1 -256 -112 -251 l-28 1 0 246 0 246 53 -3 c28 -2 60 -10 70 -18z
m10 -552 c15 -19 17 -46 17 -239 0 -261 4 -250 -97 -256 l-53 -2 0 257 c0 142
2 260 5 263 3 3 29 4 58 2 38 -2 57 -9 70 -25z"/>
</g>
</svg>
