<svg id="Layer_1" data-name="Layer 1" xmlns="http://www.w3.org/2000/svg" viewBox="0 0 150.06 150.06"><defs><style>.cls-1{fill:#231f20;}</style></defs><title>THE BREAD WEB 2016</title><path class="cls-1" d="M56.77,65.69A14.42,14.42,0,0,0,30.7,74.17V85.45h88.64V74.17A15.52,15.52,0,0,0,91,65.5"/><path class="cls-1" d="M55.19,85.45V74.17a18.7,18.7,0,0,1,37.4,0V85.45"/><circle class="cls-1" cx="73.89" cy="44.61" r="13.15"/><circle class="cls-1" cx="103.27" cy="50.59" r="10.35"/><circle class="cls-1" cx="43.19" cy="53.04" r="9.04"/><path class="cls-1" d="M37.43,97.75H29.89V90.21h7.54Zm-5.92-1.62h4.31v-4.3H31.51Z"/><path class="cls-1" d="M37.43,108.4H29.89v-7.54h7.54Zm-5.92-1.62h4.31v-4.3H31.51Z"/><path class="cls-1" d="M37.43,119.06H29.89v-7.54h7.54Zm-5.92-1.62h4.31v-4.3H31.51Z"/><path class="cls-1" d="M68.54,97.75H61V90.21h7.54Zm-5.92-1.62h4.31v-4.3H62.62Z"/><path class="cls-1" d="M68.54,108.4H61v-7.54h7.54Zm-5.92-1.62h4.31v-4.3H62.62Z"/><path class="cls-1" d="M68.54,119.06H61v-7.54h7.54Zm-5.92-1.62h4.31v-4.3H62.62Z"/><path class="cls-1" d="M99.65,97.75H92.11V90.21h7.54Zm-5.92-1.62H98v-4.3H93.73Z"/><path class="cls-1" d="M99.65,108.4H92.11v-7.54h7.54Zm-5.92-1.62H98v-4.3H93.73Z"/><path class="cls-1" d="M99.65,119.06H92.11v-7.54h7.54Zm-5.92-1.62H98v-4.3H93.73Z"/><rect class="cls-1" x="40.98" y="91.31" width="15.41" height="1.62"/><rect class="cls-1" x="40.98" y="95.02" width="12.2" height="1.62"/><rect class="cls-1" x="40.98" y="101.97" width="15.41" height="1.62"/><rect class="cls-1" x="40.98" y="112.76" width="9.42" height="1.62"/><rect class="cls-1" x="52.11" y="112.76" width="4.28" height="1.62"/><rect class="cls-1" x="40.98" y="105.68" width="12.2" height="1.62"/><rect class="cls-1" x="40.98" y="116.34" width="13.13" height="1.62"/><rect class="cls-1" x="71.62" y="91.31" width="15.41" height="1.62"/><rect class="cls-1" x="71.62" y="95.02" width="12.2" height="1.62"/><rect class="cls-1" x="71.62" y="101.97" width="15.41" height="1.62"/><rect class="cls-1" x="71.62" y="112.76" width="9.42" height="1.62"/><rect class="cls-1" x="82.75" y="112.76" width="4.28" height="1.62"/><rect class="cls-1" x="71.62" y="105.68" width="12.2" height="1.62"/><rect class="cls-1" x="71.62" y="116.34" width="13.13" height="1.62"/><rect class="cls-1" x="103.27" y="91.31" width="15.41" height="1.62"/><rect class="cls-1" x="103.27" y="95.02" width="12.2" height="1.62"/><rect class="cls-1" x="103.27" y="101.97" width="15.41" height="1.62"/><rect class="cls-1" x="103.27" y="112.76" width="9.42" height="1.62"/><rect class="cls-1" x="114.4" y="112.76" width="4.28" height="1.62"/><rect class="cls-1" x="103.27" y="105.68" width="12.2" height="1.62"/><rect class="cls-1" x="103.27" y="116.34" width="13.13" height="1.62"/><polygon class="cls-1" points="33.4 95.97 31.69 93.17 33.07 92.32 33.92 93.71 38.45 90.79 39.33 92.15 33.4 95.97"/><polygon class="cls-1" points="64.48 106.45 62.77 103.65 64.14 102.81 65 104.19 69.53 101.28 70.41 102.64 64.48 106.45"/><polygon class="cls-1" points="95.69 117.43 93.97 114.63 95.35 113.78 96.2 115.17 100.74 112.26 101.61 113.62 95.69 117.43"/><circle class="cls-1" cx="33.66" cy="115.29" r="1.31"/><circle class="cls-1" cx="64.77" cy="115.29" r="1.31"/><circle class="cls-1" cx="95.88" cy="93.98" r="1.31"/></svg>