<svg id="Layer_1" data-name="Layer 1" xmlns="http://www.w3.org/2000/svg" viewBox="0 0 150.06 150.06"><defs><style>.cls-1{fill:#231f20;}</style></defs><title>THE BREAD WEB 2016</title><rect class="cls-1" x="52.3" y="107.3" width="15.41" height="1.62"/><rect class="cls-1" x="87.44" y="107.3" width="11.77" height="1.62"/><rect class="cls-1" x="52.3" y="111.01" width="19.49" height="1.62"/><rect class="cls-1" x="66.24" y="107.3" width="13.33" height="1.62"/><rect class="cls-1" x="52.3" y="114.85" width="15.41" height="1.62"/><rect class="cls-1" x="70.15" y="114.85" width="9.42" height="1.62"/><rect class="cls-1" x="81.28" y="107.3" width="4.28" height="1.62"/><rect class="cls-1" x="74.71" y="110.88" width="24.5" height="1.62"/><path class="cls-1" d="M113.24,44.62a.81.81,0,0,1,.81-.81h0a.81.81,0,0,1,.81.81h0a.8.8,0,0,1-.81.8h0A.8.8,0,0,1,113.24,44.62Zm-3.24,0a.81.81,0,0,1,.81-.81h0a.81.81,0,0,1,.81.81h0a.8.8,0,0,1-.81.8h0A.8.8,0,0,1,110,44.62Zm-3.23,0a.81.81,0,0,1,.81-.81h0a.8.8,0,0,1,.8.81h0a.8.8,0,0,1-.8.8h0A.8.8,0,0,1,106.76,44.62Zm-3.24,0a.81.81,0,0,1,.81-.81h0a.81.81,0,0,1,.81.81h0a.8.8,0,0,1-.81.8h0A.8.8,0,0,1,103.52,44.62Zm-3.23,0a.81.81,0,0,1,.81-.81h0a.81.81,0,0,1,.81.81h0a.8.8,0,0,1-.81.8h0A.8.8,0,0,1,100.29,44.62Zm-3.24,0a.81.81,0,0,1,.82-.81h0a.8.8,0,0,1,.8.81h0a.8.8,0,0,1-.8.8h0A.81.81,0,0,1,97,44.62Zm-3.23,0a.81.81,0,0,1,.81-.81h0a.81.81,0,0,1,.81.81h0a.8.8,0,0,1-.81.8h0A.8.8,0,0,1,93.81,44.62Zm-3.23,0a.8.8,0,0,1,.81-.81h0a.8.8,0,0,1,.8.81h0a.8.8,0,0,1-.8.8h0A.8.8,0,0,1,90.58,44.62Zm-3.24,0a.81.81,0,0,1,.81-.81h0a.81.81,0,0,1,.81.81h0a.8.8,0,0,1-.81.8h0A.8.8,0,0,1,87.34,44.62Zm-3.23,0a.8.8,0,0,1,.8-.81h0a.81.81,0,0,1,.81.81h0a.81.81,0,0,1-.81.8h0A.8.8,0,0,1,84.11,44.62Zm-3.24,0a.81.81,0,0,1,.81-.81h0a.81.81,0,0,1,.81.81h0a.8.8,0,0,1-.81.8h0A.8.8,0,0,1,80.87,44.62Zm-3.23,0a.81.81,0,0,1,.81-.81h0a.8.8,0,0,1,.8.81h0a.79.79,0,0,1-.8.8h0A.8.8,0,0,1,77.63,44.62Zm-3.24,0a.81.81,0,0,1,.81-.81h0a.81.81,0,0,1,.81.81h0a.81.81,0,0,1-.81.8h0A.8.8,0,0,1,74.39,44.62Zm-3.23,0A.81.81,0,0,1,72,43.8h0a.8.8,0,0,1,.8.81h0a.79.79,0,0,1-.8.8h0A.8.8,0,0,1,71.16,44.62Zm-3.24,0a.81.81,0,0,1,.81-.81h0a.81.81,0,0,1,.81.81h0a.8.8,0,0,1-.81.8h0A.8.8,0,0,1,67.92,44.62Zm-3.23,0a.81.81,0,0,1,.81-.81h0a.81.81,0,0,1,.81.81h0a.8.8,0,0,1-.81.8h0A.8.8,0,0,1,64.68,44.62Zm-3.24,0a.81.81,0,0,1,.81-.81h0a.8.8,0,0,1,.81.81h0a.8.8,0,0,1-.81.8h0A.8.8,0,0,1,61.44,44.62Zm-3.23,0A.81.81,0,0,1,59,43.8h0a.81.81,0,0,1,.81.81h0a.8.8,0,0,1-.81.8h0A.8.8,0,0,1,58.21,44.62Zm-3.23,0a.8.8,0,0,1,.8-.81h0a.81.81,0,0,1,.81.81h0a.8.8,0,0,1-.81.8h0A.8.8,0,0,1,55,44.62Zm-3.24,0a.81.81,0,0,1,.81-.81h0a.81.81,0,0,1,.81.81h0a.8.8,0,0,1-.81.8h0A.8.8,0,0,1,51.74,44.62Zm-3.24,0a.81.81,0,0,1,.82-.81h0a.8.8,0,0,1,.8.81h0a.8.8,0,0,1-.8.8h0A.81.81,0,0,1,48.49,44.62Zm-3.23,0a.81.81,0,0,1,.81-.81h0a.81.81,0,0,1,.81.81h0a.8.8,0,0,1-.81.8h0A.8.8,0,0,1,45.26,44.62Zm-3.23,0a.8.8,0,0,1,.81-.81h0a.8.8,0,0,1,.8.81h0a.79.79,0,0,1-.8.8h0A.8.8,0,0,1,42,44.62Zm-3.24,0a.81.81,0,0,1,.81-.81h0a.81.81,0,0,1,.81.81h0a.8.8,0,0,1-.81.8h0A.8.8,0,0,1,38.79,44.62Zm-3.23,0a.8.8,0,0,1,.81-.81h0a.8.8,0,0,1,.8.81h0a.79.79,0,0,1-.8.8h0A.8.8,0,0,1,35.56,44.62Zm-3.24,0a.81.81,0,0,1,.81-.81h0a.81.81,0,0,1,.81.81h0a.8.8,0,0,1-.81.8h0A.8.8,0,0,1,32.31,44.62Z"/><path class="cls-1" d="M113.24,102.85A.8.8,0,0,1,114,102h0a.81.81,0,0,1,.81.81h0a.8.8,0,0,1-.81.8h0A.8.8,0,0,1,113.24,102.85Zm-3.24,0a.81.81,0,0,1,.81-.81h0a.81.81,0,0,1,.81.81h0a.8.8,0,0,1-.81.8h0A.8.8,0,0,1,110,102.85Zm-3.23,0a.81.81,0,0,1,.81-.81h0a.81.81,0,0,1,.81.81h0a.8.8,0,0,1-.81.8h0A.8.8,0,0,1,106.76,102.85Zm-3.24,0a.81.81,0,0,1,.81-.81h0a.81.81,0,0,1,.81.81h0a.8.8,0,0,1-.81.8h0A.8.8,0,0,1,103.52,102.85Zm-3.23,0a.81.81,0,0,1,.81-.81h0a.81.81,0,0,1,.81.81h0a.8.8,0,0,1-.81.8h0A.8.8,0,0,1,100.29,102.85Zm-3.24,0a.81.81,0,0,1,.81-.81h0a.8.8,0,0,1,.81.81h0a.8.8,0,0,1-.81.8h0A.8.8,0,0,1,97,102.85Zm-3.23,0a.81.81,0,0,1,.81-.81h0a.81.81,0,0,1,.81.81h0a.8.8,0,0,1-.81.8h0A.8.8,0,0,1,93.81,102.85Zm-3.23,0a.8.8,0,0,1,.8-.81h0a.8.8,0,0,1,.81.81h0a.8.8,0,0,1-.81.8h0A.79.79,0,0,1,90.58,102.85Zm-3.24,0a.81.81,0,0,1,.81-.81h0a.81.81,0,0,1,.81.81h0a.8.8,0,0,1-.81.8h0A.8.8,0,0,1,87.34,102.85Zm-3.23,0a.8.8,0,0,1,.8-.81h0a.8.8,0,0,1,.81.81h0a.8.8,0,0,1-.81.8h0A.79.79,0,0,1,84.11,102.85Zm-3.24,0a.81.81,0,0,1,.81-.81h0a.81.81,0,0,1,.81.81h0a.8.8,0,0,1-.81.8h0A.8.8,0,0,1,80.87,102.85Zm-3.23,0a.8.8,0,0,1,.8-.81h0a.81.81,0,0,1,.82.81h0a.81.81,0,0,1-.82.8h0A.79.79,0,0,1,77.63,102.85Zm-3.24,0a.81.81,0,0,1,.81-.81h0a.81.81,0,0,1,.81.81h0a.81.81,0,0,1-.81.8h0A.8.8,0,0,1,74.39,102.85Zm-3.23,0A.81.81,0,0,1,72,102h0a.81.81,0,0,1,.81.81h0a.8.8,0,0,1-.81.8h0A.8.8,0,0,1,71.16,102.85Zm-3.24,0a.81.81,0,0,1,.81-.81h0a.81.81,0,0,1,.81.81h0a.8.8,0,0,1-.81.8h0A.8.8,0,0,1,67.92,102.85Zm-3.23,0a.81.81,0,0,1,.81-.81h0a.81.81,0,0,1,.81.81h0a.8.8,0,0,1-.81.8h0A.8.8,0,0,1,64.68,102.85Zm-3.24,0a.81.81,0,0,1,.81-.81h0a.8.8,0,0,1,.81.81h0a.8.8,0,0,1-.81.8h0A.8.8,0,0,1,61.44,102.85Zm-3.23,0A.81.81,0,0,1,59,102h0a.81.81,0,0,1,.81.81h0a.8.8,0,0,1-.81.8h0A.8.8,0,0,1,58.21,102.85Zm-3.24,0a.81.81,0,0,1,.81-.81h0a.8.8,0,0,1,.81.81h0a.8.8,0,0,1-.81.8h0A.8.8,0,0,1,55,102.85Zm-3.23,0a.81.81,0,0,1,.81-.81h0a.81.81,0,0,1,.81.81h0a.8.8,0,0,1-.81.8h0A.8.8,0,0,1,51.74,102.85Zm-3.23,0a.8.8,0,0,1,.8-.81h0a.8.8,0,0,1,.81.81h0a.8.8,0,0,1-.81.8h0A.8.8,0,0,1,48.5,102.85Zm-3.24,0a.81.81,0,0,1,.81-.81h0a.81.81,0,0,1,.81.81h0a.8.8,0,0,1-.81.8h0A.8.8,0,0,1,45.26,102.85Zm-3.23,0a.8.8,0,0,1,.8-.81h0a.81.81,0,0,1,.82.81h0a.81.81,0,0,1-.82.8h0A.8.8,0,0,1,42,102.85Zm-3.24,0a.81.81,0,0,1,.81-.81h0a.81.81,0,0,1,.81.81h0a.8.8,0,0,1-.81.8h0A.8.8,0,0,1,38.79,102.85Zm-3.23,0a.8.8,0,0,1,.8-.81h0a.81.81,0,0,1,.82.81h0a.81.81,0,0,1-.82.8h0A.8.8,0,0,1,35.56,102.85Zm-3.24,0a.81.81,0,0,1,.81-.81h0a.81.81,0,0,1,.81.81h0a.8.8,0,0,1-.81.8h0A.8.8,0,0,1,32.31,102.85Z"/><path class="cls-1" d="M46.35,118.34a.68.68,0,0,1-.31-.07.69.69,0,0,1-.26-.17.8.8,0,0,1,0-1.14.81.81,0,0,1,1.38.57.81.81,0,0,1-.24.57,1,1,0,0,1-.26.17A.75.75,0,0,1,46.35,118.34Z"/><path class="cls-1" d="M45.54,114.3a.81.81,0,0,1,.81-.81h0a.81.81,0,0,1,.81.81h0a.81.81,0,0,1-.81.8h0A.81.81,0,0,1,45.54,114.3Zm0-3.24a.81.81,0,0,1,.81-.81h0a.81.81,0,0,1,.81.81h0a.81.81,0,0,1-.81.81h0A.81.81,0,0,1,45.54,111.06Zm0-3.23a.81.81,0,0,1,.81-.81h0a.81.81,0,0,1,.81.81h0a.81.81,0,0,1-.81.81h0A.81.81,0,0,1,45.54,107.83Zm0-3.24a.8.8,0,0,1,.81-.8h0a.8.8,0,0,1,.81.8h0a.81.81,0,0,1-.81.81h0A.81.81,0,0,1,45.54,104.58Zm0-3.23a.81.81,0,0,1,.81-.81h0a.81.81,0,0,1,.81.81h0a.81.81,0,0,1-.81.81h0A.81.81,0,0,1,45.54,101.35Zm0-3.23a.81.81,0,0,1,.81-.81h0a.81.81,0,0,1,.81.81h0a.81.81,0,0,1-.81.81h0A.81.81,0,0,1,45.54,98.12Zm0-3.23a.81.81,0,0,1,.81-.81h0a.81.81,0,0,1,.81.81h0a.8.8,0,0,1-.81.8h0A.8.8,0,0,1,45.54,94.89Zm0-3.24a.81.81,0,0,1,.81-.81h0a.81.81,0,0,1,.81.81h0a.81.81,0,0,1-.81.81h0A.81.81,0,0,1,45.54,91.65Zm0-3.23a.81.81,0,0,1,.81-.81h0a.81.81,0,0,1,.81.81h0a.8.8,0,0,1-.81.8h0A.8.8,0,0,1,45.54,88.42Zm0-3.23a.81.81,0,0,1,.81-.81h0a.81.81,0,0,1,.81.81h0a.81.81,0,0,1-.81.8h0A.81.81,0,0,1,45.54,85.18Zm0-3.24a.81.81,0,0,1,.81-.81h0a.81.81,0,0,1,.81.81h0a.81.81,0,0,1-.81.81h0A.81.81,0,0,1,45.54,81.94Zm0-3.23a.81.81,0,0,1,.81-.81h0a.81.81,0,0,1,.81.81h0a.81.81,0,0,1-.81.81h0A.81.81,0,0,1,45.54,78.71Zm0-3.24a.8.8,0,0,1,.81-.8h0a.8.8,0,0,1,.81.8h0a.81.81,0,0,1-.81.81h0A.81.81,0,0,1,45.54,75.47Zm0-3.23a.81.81,0,0,1,.81-.81h0a.81.81,0,0,1,.81.81h0a.81.81,0,0,1-.81.81h0A.81.81,0,0,1,45.54,72.24Zm0-3.23a.81.81,0,0,1,.81-.81h0a.81.81,0,0,1,.81.81h0a.81.81,0,0,1-.81.81h0A.81.81,0,0,1,45.54,69Zm0-3.23a.82.82,0,0,1,.81-.82h0a.82.82,0,0,1,.81.82h0a.81.81,0,0,1-.81.8h0A.81.81,0,0,1,45.54,65.77Zm0-3.24a.81.81,0,0,1,.81-.81h0a.81.81,0,0,1,.81.81h0a.81.81,0,0,1-.81.81h0A.81.81,0,0,1,45.54,62.53Zm0-3.23a.81.81,0,0,1,.81-.81h0a.81.81,0,0,1,.81.81h0a.81.81,0,0,1-.81.81h0A.81.81,0,0,1,45.54,59.3Zm0-3.24a.8.8,0,0,1,.81-.8h0a.8.8,0,0,1,.81.8h0a.81.81,0,0,1-.81.81h0A.81.81,0,0,1,45.54,56.06Zm0-3.23a.81.81,0,0,1,.81-.81h0a.81.81,0,0,1,.81.81h0a.81.81,0,0,1-.81.81h0A.81.81,0,0,1,45.54,52.82Zm0-3.23a.81.81,0,0,1,.81-.81h0a.81.81,0,0,1,.81.81h0a.81.81,0,0,1-.81.81h0A.81.81,0,0,1,45.54,49.59Zm0-3.24a.8.8,0,0,1,.81-.8h0a.8.8,0,0,1,.81.8h0a.81.81,0,0,1-.81.81h0A.81.81,0,0,1,45.54,46.35Zm0-3.23a.81.81,0,0,1,.81-.81h0a.81.81,0,0,1,.81.81h0a.81.81,0,0,1-.81.81h0A.81.81,0,0,1,45.54,43.12Zm0-3.23a.81.81,0,0,1,.81-.81h0a.81.81,0,0,1,.81.81h0a.8.8,0,0,1-.81.8h0A.8.8,0,0,1,45.54,39.89Zm0-3.23a.81.81,0,0,1,.81-.81h0a.81.81,0,0,1,.81.81h0a.81.81,0,0,1-.81.8h0A.81.81,0,0,1,45.54,36.66Zm0-3.24a.81.81,0,0,1,.81-.81h0a.81.81,0,0,1,.81.81h0a.81.81,0,0,1-.81.81h0A.81.81,0,0,1,45.54,33.41Z"/><path class="cls-1" d="M46.35,31a.67.67,0,0,1-.31-.07.69.69,0,0,1-.26-.17.75.75,0,0,1-.24-.57.8.8,0,0,1,.5-.75.82.82,0,0,1,1.12.75.75.75,0,0,1-.07.31.77.77,0,0,1-.43.43A.75.75,0,0,1,46.35,31Z"/><path class="cls-1" d="M103.54,118.34a.75.75,0,0,1-.31-.07.76.76,0,0,1-.25-.17,1,1,0,0,1-.18-.26.74.74,0,0,1-.06-.31A.77.77,0,0,1,103,117a.82.82,0,0,1,1.14,0,.83.83,0,0,1,0,1.14.93.93,0,0,1-.26.17A.76.76,0,0,1,103.54,118.34Z"/><path class="cls-1" d="M102.74,114.3a.8.8,0,0,1,.81-.81h0a.8.8,0,0,1,.8.81h0a.8.8,0,0,1-.8.8h0A.8.8,0,0,1,102.74,114.3Zm0-3.24a.81.81,0,0,1,.81-.81h0a.8.8,0,0,1,.8.81h0a.8.8,0,0,1-.8.81h0A.81.81,0,0,1,102.74,111.06Zm0-3.23a.81.81,0,0,1,.81-.81h0a.8.8,0,0,1,.8.81h0a.8.8,0,0,1-.8.81h0A.81.81,0,0,1,102.74,107.83Zm0-3.24a.8.8,0,0,1,.81-.8h0a.79.79,0,0,1,.8.8h0a.8.8,0,0,1-.8.81h0A.8.8,0,0,1,102.74,104.58Zm0-3.23a.81.81,0,0,1,.81-.81h0a.8.8,0,0,1,.8.81h0a.8.8,0,0,1-.8.81h0A.81.81,0,0,1,102.74,101.35Zm0-3.23a.81.81,0,0,1,.81-.81h0a.8.8,0,0,1,.8.81h0a.8.8,0,0,1-.8.81h0A.81.81,0,0,1,102.74,98.12Zm0-3.23a.8.8,0,0,1,.81-.81h0a.8.8,0,0,1,.8.81h0a.79.79,0,0,1-.8.8h0A.8.8,0,0,1,102.74,94.89Zm0-3.24a.81.81,0,0,1,.81-.81h0a.8.8,0,0,1,.8.81h0a.8.8,0,0,1-.8.81h0A.81.81,0,0,1,102.74,91.65Zm0-3.23a.81.81,0,0,1,.81-.81h0a.8.8,0,0,1,.8.81h0a.79.79,0,0,1-.8.8h0A.8.8,0,0,1,102.74,88.42Zm0-3.23a.8.8,0,0,1,.81-.81h0a.8.8,0,0,1,.8.81h0a.8.8,0,0,1-.8.8h0A.8.8,0,0,1,102.74,85.18Zm0-3.24a.81.81,0,0,1,.81-.81h0a.8.8,0,0,1,.8.81h0a.8.8,0,0,1-.8.81h0A.81.81,0,0,1,102.74,81.94Zm0-3.23a.81.81,0,0,1,.81-.81h0a.8.8,0,0,1,.8.81h0a.8.8,0,0,1-.8.81h0A.81.81,0,0,1,102.74,78.71Zm0-3.24a.8.8,0,0,1,.81-.8h0a.79.79,0,0,1,.8.8h0a.8.8,0,0,1-.8.81h0A.8.8,0,0,1,102.74,75.47Zm0-3.23a.81.81,0,0,1,.81-.81h0a.8.8,0,0,1,.8.81h0a.8.8,0,0,1-.8.81h0A.81.81,0,0,1,102.74,72.24Zm0-3.23a.81.81,0,0,1,.81-.81h0a.8.8,0,0,1,.8.81h0a.8.8,0,0,1-.8.81h0A.81.81,0,0,1,102.74,69Zm0-3.23a.81.81,0,0,1,.81-.82h0a.81.81,0,0,1,.8.82h0a.8.8,0,0,1-.8.8h0A.8.8,0,0,1,102.74,65.77Zm0-3.24a.81.81,0,0,1,.81-.81h0a.8.8,0,0,1,.8.81h0a.8.8,0,0,1-.8.81h0A.81.81,0,0,1,102.74,62.53Zm0-3.23a.81.81,0,0,1,.81-.81h0a.8.8,0,0,1,.8.81h0a.8.8,0,0,1-.8.81h0A.81.81,0,0,1,102.74,59.3Zm0-3.24a.8.8,0,0,1,.81-.8h0a.79.79,0,0,1,.8.8h0a.8.8,0,0,1-.8.81h0A.81.81,0,0,1,102.74,56.06Zm0-3.23a.81.81,0,0,1,.81-.81h0a.8.8,0,0,1,.8.81h0a.8.8,0,0,1-.8.81h0A.81.81,0,0,1,102.74,52.82Zm0-3.23a.81.81,0,0,1,.81-.81h0a.8.8,0,0,1,.8.81h0a.8.8,0,0,1-.8.81h0A.81.81,0,0,1,102.74,49.59Zm0-3.24a.8.8,0,0,1,.81-.8h0a.79.79,0,0,1,.8.8h0a.8.8,0,0,1-.8.81h0A.8.8,0,0,1,102.74,46.35Zm0-3.23a.81.81,0,0,1,.81-.81h0a.8.8,0,0,1,.8.81h0a.8.8,0,0,1-.8.81h0A.81.81,0,0,1,102.74,43.12Zm0-3.23a.8.8,0,0,1,.81-.81h0a.8.8,0,0,1,.8.81h0a.79.79,0,0,1-.8.8h0A.8.8,0,0,1,102.74,39.89Zm0-3.23a.8.8,0,0,1,.81-.81h0a.8.8,0,0,1,.8.81h0a.8.8,0,0,1-.8.8h0A.8.8,0,0,1,102.74,36.66Zm0-3.24a.81.81,0,0,1,.81-.81h0a.8.8,0,0,1,.8.81h0a.8.8,0,0,1-.8.81h0A.81.81,0,0,1,102.74,33.41Z"/><path class="cls-1" d="M103.55,31a.82.82,0,0,1-.57-.24,1,1,0,0,1-.18-.26.75.75,0,0,1-.07-.31.81.81,0,0,1,.24-.57.83.83,0,0,1,.89-.18,1,1,0,0,1,.26.18.81.81,0,0,1,.24.57.75.75,0,0,1-.07.31,1,1,0,0,1-.18.26.81.81,0,0,1-.56.24Z"/><path d="M88.46,77.83,93.6,94.41H85.14L84,90.67a20.47,20.47,0,0,0,1.6-6.31c.45-3.21.85-5.39,2.85-6.54m.71-1.55c-6,2-3.52,9.07-6.38,14.29l1.5,5H95.15l-6-19.28Z"/><path d="M89.17,76.27,81.31,50.92H68.06L54.42,95.55H64.89L68.06,84.1H80.85l1.94,6.46C85.65,85.34,83.12,78.25,89.17,76.27Zm-19.65.27,2.65-9.47c.73-2.58,1.39-6,2.05-8.61h.13c.66,2.65,1.46,6,2.25,8.61l2.78,9.47Z"/></svg>