<svg id="Layer_1" data-name="Layer 1" xmlns="http://www.w3.org/2000/svg" viewBox="0 0 150.06 150.06"><defs><style>.cls-1{fill:#231f20;}</style></defs><title>THE BREAD WEB 2016</title><path class="cls-1" d="M75,83.61a8.54,8.54,0,0,1-4.8-1.47l.91-1.34A7,7,0,1,0,68.06,75H66.45A8.58,8.58,0,1,1,75,83.61Z"/><path class="cls-1" d="M75,88.26A13.23,13.23,0,1,1,88.26,75H86.64a11.61,11.61,0,1,0-2,6.49l1.34.91A13.23,13.23,0,0,1,75,88.26Z"/><path class="cls-1" d="M75,92.91a17.88,17.88,0,0,1,0-35.76,17.69,17.69,0,0,1,8.14,2l-.74,1.44A16.07,16.07,0,0,0,75,58.77a16.26,16.26,0,1,0,11.83,5.11L88,62.77A17.88,17.88,0,0,1,75,92.91Z"/><path class="cls-1" d="M75,97.55a22.51,22.51,0,0,1-7.19-1.17l.52-1.53a20.92,20.92,0,1,0-5.78-3l-1,1.3A22.53,22.53,0,1,1,75,97.55Z"/><path class="cls-1" d="M75,102.2a27,27,0,0,1-26.48-21l1.58-.36A25.58,25.58,0,1,0,49.48,75H47.86A27.17,27.17,0,1,1,75,102.2Z"/><path class="cls-1" d="M75,106.85a31.8,31.8,0,1,1,28.13-16.93l-1.43-.76a30.25,30.25,0,1,0-3.29,5l1.25,1A31.72,31.72,0,0,1,75,106.85Z"/><path class="cls-1" d="M75,111.5A36.47,36.47,0,0,1,40,64.87l1.55.45a34.7,34.7,0,1,0,3-7.12l-1.42-.78A36.47,36.47,0,1,1,75,111.5Z"/><path class="cls-1" d="M75,116.14a41.07,41.07,0,1,1,39.71-30.41l-1.56-.42a39.49,39.49,0,1,0-2.76,7.28l1.45.72A40.9,40.9,0,0,1,75,116.14Z"/><path class="cls-1" d="M75,120.79a45.76,45.76,0,1,1,31.9-13l-1.13-1.16a44.09,44.09,0,1,0-4.28,3.66l1,1.29A45.36,45.36,0,0,1,75,120.79Z"/><path class="cls-1" d="M75,125.41a50.38,50.38,0,0,1-35.64-86,50.85,50.85,0,0,1,7-5.84l.92,1.33a48.79,48.79,0,1,0,62.23,5.65,48.66,48.66,0,0,0-56.7-9l-.74-1.44A50.41,50.41,0,1,1,75,125.41Z"/><path class="cls-1" d="M75,130.08A55.05,55.05,0,0,1,36,36.19l-.89-.9,1.15-1.14,2,2-.58.57a53.34,53.34,0,1,0,7.39-6l-.64.43-2-2.67,1.29-1L44.85,29A55.06,55.06,0,1,1,75,130.08Z"/><circle class="cls-1" cx="75.03" cy="75.03" r="4.1"/></svg>