<svg id="Layer_1" data-name="Layer 1" xmlns="http://www.w3.org/2000/svg" viewBox="0 0 150.06 150.06"><defs><style>.cls-1{fill:#231f20;}</style></defs><title>THE BREAD WEB 2016</title><path class="cls-1" d="M90.63,100.35a1.67,1.67,0,0,1-.62-.12c-1.49-.58-1.83-3.06-1-7.57A78.17,78.17,0,0,1,93.2,78.54a78.23,78.23,0,0,1,6.51-13.23c2.48-3.85,4.41-5.44,5.9-4.85s1.83,3.06,1,7.57a78.16,78.16,0,0,1-4.22,14.13h0a78.25,78.25,0,0,1-6.51,13.23C93.76,98.72,92,100.35,90.63,100.35ZM105,62c-.32,0-1.59.65-3.9,4.23a76.56,76.56,0,0,0-6.36,12.94A76.47,76.47,0,0,0,90.57,93c-.79,4.48-.18,5.7,0,5.78s1.49-.4,3.95-4.22a76.56,76.56,0,0,0,6.36-12.94h0A76.47,76.47,0,0,0,105,67.75c.79-4.48.18-5.7,0-5.78Z"/><path class="cls-1" d="M88.35,107a2.55,2.55,0,0,1-.93-.17C82.8,105,85.66,90.41,90.7,77.56a86.38,86.38,0,0,1,9.09-17.65c2.37-3.34,5.74-7.11,8.4-6.06,4.62,1.81,1.75,16.44-3.28,29.28h0C100.2,95.15,93,107,88.35,107Zm18.88-51.72c-1.12,0-3.2,1.44-6.11,5.56a84.61,84.61,0,0,0-8.91,17.3c-6.07,15.48-6.54,26.27-4.2,27.18s9.33-7.31,15.4-22.79,6.54-26.27,4.2-27.18A1,1,0,0,0,107.23,55.29Z"/><path class="cls-1" d="M97.77,108.81a28.33,28.33,0,0,1-10.36-2l.59-1.51a26.84,26.84,0,1,0,19.6-50l.59-1.51a28.46,28.46,0,0,1-10.43,55Z"/><path class="cls-1" d="M59.43,100.35c-1.39,0-3.13-1.64-5.28-5a78.24,78.24,0,0,1-6.51-13.23A78.15,78.15,0,0,1,43.42,68c-.8-4.51-.46-7,1-7.57s3.42,1,5.9,4.85a78.24,78.24,0,0,1,6.51,13.23,78.19,78.19,0,0,1,4.22,14.13c.8,4.51.46,7-1,7.57A1.7,1.7,0,0,1,59.43,100.35ZM45.09,62H45c-.21.08-.82,1.3,0,5.78a76.47,76.47,0,0,0,4.13,13.82h0a76.56,76.56,0,0,0,6.36,12.94c2.46,3.82,3.74,4.3,3.95,4.22s.82-1.3,0-5.78a76.49,76.49,0,0,0-4.13-13.82A76.56,76.56,0,0,0,49,66.19C46.68,62.6,45.41,62,45.09,62Z"/><path class="cls-1" d="M61.69,107c-2.48,0-5.36-3.29-7.45-6.24a86.38,86.38,0,0,1-9.09-17.64h0c-5-12.84-7.9-27.47-3.29-29.28s12.46,10.86,17.5,23.71,7.9,27.47,3.29,29.28A2.6,2.6,0,0,1,61.69,107Zm-15-24.48a84.61,84.61,0,0,0,8.91,17.3c3.28,4.64,5.51,5.89,6.49,5.49,2.34-.92,1.87-11.7-4.2-27.18s-13-23.72-15.4-22.79-1.87,11.7,4.2,27.18Z"/><path class="cls-1" d="M52.24,108.82a28.47,28.47,0,0,1-10.38-55l.59,1.51a26.84,26.84,0,1,0,19.6,50l.59,1.51A28.44,28.44,0,0,1,52.24,108.82Z"/><path class="cls-1" d="M75.54,45.09A24.82,24.82,0,1,0,100.36,69.9,24.82,24.82,0,0,0,75.54,45.09Zm5.39,9.52a3.86,3.86,0,1,1,3.86,3.86A3.86,3.86,0,0,1,80.94,54.61Zm7.41,10.1a2.46,2.46,0,1,1,2.46-2.46A2.46,2.46,0,0,1,88.34,64.7Z"/></svg>